# xmcd
#
# Track frame offsets: 
#        150
#        13692
#        31535
#        40005
#        50080
#        64200
#        72790
#        88632
#        99797
#        116597
#        124917
#        140022
#        153725
#        168060
#
# Disc length: 2400 seconds
#
# Revision: 0
# Processed by: cddbd v1.5.2PL0 Copyright (c) Steve Scherf et al.
# Submitted via: ExactAudioCopy v0.95a4
#
DISCID=b3095e0e
DTITLE=Nick Mackenzie and Joell - Blue Bayou
DYEAR=1900
DGENRE=Blues
TTITLE0=Turning over new leaves
TTITLE1=You to me are everything
TTITLE2=You're so sweet
TTITLE3=The shoop, shoop song
TTITLE4=Green, green grass of home
TTITLE5=Lollipop
TTITLE6=Island in the stream
TTITLE7=Some broken heart
TTITLE8=Blue Bayou
TTITLE9=He's so fine
TTITLE10=Lucille
TTITLE11=Devil woman
TTITLE12=I don't wonna talk about it
TTITLE13=I'd rather be sorry
EXTD=
EXTT0=
EXTT1=
EXTT2=
EXTT3=
EXTT4=
EXTT5=
EXTT6=
EXTT7=
EXTT8=
EXTT9=
EXTT10=
EXTT11=
EXTT12=
EXTT13=
PLAYORDER=
